<?xml version="1.0" standalone="no"?>
<!DOCTYPE svg PUBLIC "-//W3C//DTD SVG 20010904//EN"
 "http://www.w3.org/TR/2001/REC-SVG-20010904/DTD/svg10.dtd">
<svg version="1.0" xmlns="http://www.w3.org/2000/svg"
 width="700.000000pt" height="350.000000pt" viewBox="0 0 700.000000 350.000000"
 preserveAspectRatio="xMidYMid meet">

<g transform="translate(0.000000,350.000000) scale(0.100000,-0.100000)"
fill="#000000" stroke="none">
<path d="M504 3011 c-10 -10 -3 -1471 7 -1556 59 -477 407 -854 879 -950 66
-13 90 -14 138 -5 407 82 726 358 851 739 50 153 51 170 51 1000 l0 776 -961
0 c-528 0 -963 -2 -965 -4z m1886 -790 c0 -638 -2 -771 -15 -831 -81 -386
-340 -685 -699 -805 -139 -47 -198 -55 -278 -38 -441 91 -766 432 -842 882
-14 80 -16 203 -16 816 0 397 3 725 7 728 3 4 420 7 925 7 l918 0 0 -759z"/>
<path d="M570 2236 c0 -770 1 -795 55 -963 46 -145 142 -308 243 -410 134
-137 336 -245 537 -287 72 -15 135 -7 256 35 378 129 636 444 694 848 13 89
15 217 13 796 l-3 690 -897 3 -898 2 0 -714z m1778 -3 l2 -693 -29 0 c-33 0
-30 -7 -51 130 -6 42 -6 68 0 74 6 6 10 18 10 28 0 16 -11 18 -104 18 -108 0
-119 -5 -88 -43 7 -8 10 -22 6 -31 -5 -14 -29 -16 -185 -16 -177 0 -179 0
-183 23 -3 12 -19 121 -35 241 l-31 220 25 26 c14 15 25 38 25 53 0 22 -4 27
-26 27 -15 0 -42 9 -60 21 l-34 21 0 119 c0 112 -1 119 -20 119 -13 0 -20 7
-20 20 0 11 -5 20 -12 20 -6 0 -9 3 -6 6 3 3 63 -25 133 -61 69 -37 129 -64
132 -61 9 8 10 7 -112 70 -122 63 -122 63 58 -4 70 -26 129 -44 132 -40 3 4
-64 33 -148 63 -83 31 -147 56 -141 56 6 1 91 -17 189 -39 193 -44 195 -44
195 -32 0 4 -39 16 -87 26 -159 31 -298 64 -278 65 11 0 79 -6 150 -13 192
-21 311 -29 303 -21 -7 7 -329 43 -423 46 -94 4 135 17 317 18 112 1 179 5
183 12 5 7 -77 9 -272 5 -153 -3 -267 -3 -253 0 14 3 142 21 285 40 244 33
342 51 289 53 -11 1 -147 -17 -303 -39 -155 -22 -285 -40 -289 -39 -4 0 133
35 303 78 318 79 351 88 343 96 -2 3 -123 -25 -269 -60 -145 -36 -293 -73
-329 -81 -36 -9 -72 -18 -81 -20 -11 -3 -19 4 -23 21 -4 16 -20 32 -41 42 -34
16 -36 16 -63 -4 -15 -11 -28 -30 -30 -42 -2 -11 -5 -21 -6 -21 -5 0 -658 160
-678 166 -10 3 -18 1 -18 -3 0 -5 146 -45 324 -89 178 -43 323 -80 322 -82 -2
-1 -130 16 -286 38 -156 22 -293 40 -304 39 -61 -2 42 -21 284 -53 146 -19
276 -37 290 -40 14 -3 -100 -3 -253 0 -195 4 -277 2 -272 -5 4 -7 71 -11 183
-12 172 -1 404 -14 312 -18 -78 -3 -411 -39 -417 -45 -10 -10 32 -7 247 14
112 11 204 19 206 17 2 -2 -78 -21 -179 -42 -100 -21 -186 -42 -191 -47 -16
-14 8 -10 201 33 102 22 187 38 189 36 3 -3 -7 -8 -23 -12 -60 -15 -277 -100
-263 -103 9 -1 76 20 149 48 73 27 136 50 140 49 3 0 -47 -27 -113 -60 -65
-33 -115 -63 -112 -66 3 -3 64 24 134 60 123 63 129 65 124 42 -3 -16 -11 -25
-23 -25 -18 0 -19 -9 -19 -119 l0 -119 -36 -21 c-19 -12 -46 -21 -60 -21 -20
0 -24 -5 -24 -30 0 -20 9 -39 24 -53 l24 -22 -33 -235 c-19 -129 -34 -238 -35
-242 0 -5 -83 -8 -185 -8 l-185 0 0 25 c0 14 5 25 10 25 6 0 10 9 10 20 0 19
-7 20 -105 20 -83 0 -105 -3 -105 -14 0 -7 6 -19 13 -25 12 -9 12 -26 1 -103
-7 -51 -13 -96 -14 -100 0 -5 -13 -8 -30 -8 l-30 0 0 695 0 695 878 -2 877 -3
3 -692z m-857 547 c33 -18 21 -30 -28 -30 l-48 1 24 19 c27 23 26 23 52 10z
m9 -64 c0 -7 3 -34 6 -60 l7 -46 -42 0 c-39 0 -41 2 -41 29 0 16 3 43 6 60 6
26 11 31 35 31 18 0 29 -5 29 -14z m30 -136 c0 -6 -27 -10 -60 -10 -33 0 -60
4 -60 10 0 6 27 10 60 10 33 0 60 -4 60 -10z m40 -135 c0 -63 -4 -105 -10
-105 -6 0 -10 38 -10 95 l0 95 -80 0 -80 0 0 -95 c0 -57 -4 -95 -10 -95 -6 0
-10 42 -10 105 l0 105 100 0 100 0 0 -105z m-40 -20 l0 -85 -60 0 -60 0 0 85
0 85 60 0 60 0 0 -85z m63 -117 c14 -11 -8 -13 -123 -13 -115 0 -137 2 -123
13 11 8 54 12 123 12 69 0 112 -4 123 -12z m87 -48 c0 -19 -7 -20 -215 -20
-183 0 -215 2 -215 15 0 12 33 15 213 18 116 1 213 3 215 5 1 1 2 -7 2 -18z
m-30 -50 c-8 -5 -89 -10 -180 -10 -91 0 -172 5 -180 10 -10 6 50 10 180 10
130 0 190 -4 180 -10z m-10 -36 c0 -4 6 -50 14 -103 8 -53 26 -181 41 -286 14
-104 27 -202 30 -217 4 -27 2 -28 -34 -28 l-39 0 -10 73 c-6 39 -23 165 -39
280 l-27 207 -107 0 -106 0 -39 -280 -38 -280 -38 0 -38 0 5 38 c3 20 14 100
24 177 11 77 27 192 36 255 8 63 18 127 21 143 l6 27 169 0 c93 0 169 -3 169
-6z m-51 -336 c18 -134 35 -255 38 -270 5 -28 5 -28 -51 -28 l-56 0 0 80 0 80
-50 0 -50 0 0 -80 0 -80 -56 0 -57 0 6 38 c3 20 20 142 38 270 l32 232 86 0
87 0 33 -242z m-759 -78 c-20 -13 -137 -13 -145 0 -4 6 24 10 77 10 57 0 78
-3 68 -10z m1420 0 c-20 -13 -137 -13 -145 0 -4 6 24 10 77 10 57 0 78 -3 68
-10z m-1426 -57 c2 -16 8 -50 11 -78 3 -27 8 -58 11 -67 4 -13 0 -18 -14 -18
-17 0 -21 9 -27 53 -12 103 -14 107 -45 107 -33 0 -37 -9 -46 -95 -6 -54 -10
-65 -25 -65 -22 0 -22 -4 -8 79 19 121 12 111 78 111 57 0 60 -1 65 -27z
m1420 0 c3 -16 8 -50 11 -78 4 -27 9 -58 12 -67 3 -13 -1 -18 -15 -18 -17 0
-21 9 -27 53 -12 103 -14 107 -45 107 -31 0 -35 -8 -46 -103 -6 -47 -10 -57
-26 -57 -14 0 -18 5 -14 18 2 9 7 44 11 77 10 97 9 95 75 95 56 0 59 -1 64
-27z m-1470 -50 c3 -16 8 -47 11 -70 7 -43 7 -43 -25 -43 l-31 0 7 63 c4 34 9
65 11 70 9 15 22 6 27 -20z m154 -45 l3 -68 -29 0 c-32 0 -35 5 -48 93 l-6 48
38 -3 39 -3 3 -67z m92 2 l0 -70 -35 0 -35 0 0 70 0 70 35 0 35 0 0 -70z m90
0 l0 -70 -35 0 -35 0 0 70 0 70 35 0 35 0 0 -70z m97 57 c-3 -8 -8 -39 -12
-70 -7 -54 -9 -57 -36 -57 l-29 0 0 70 0 70 41 0 c30 0 40 -4 36 -13z m293
-57 l0 -70 -30 0 -30 0 0 70 0 70 30 0 30 0 0 -70z m310 0 l0 -70 -29 0 c-27
0 -29 3 -36 48 -3 26 -9 57 -12 70 -5 20 -2 22 36 22 l41 0 0 -70z m90 0 l0
-70 -35 0 -35 0 0 70 0 70 35 0 35 0 0 -70z m90 0 l0 -70 -35 0 -35 0 0 70 0
70 35 0 35 0 0 -70z m96 43 c-3 -16 -8 -47 -11 -70 -6 -39 -9 -43 -36 -43
l-29 0 0 70 0 70 41 0 c39 0 40 -1 35 -27z m108 0 c3 -16 8 -47 11 -70 7 -43
7 -43 -25 -43 l-32 0 7 53 c8 66 14 87 25 87 5 0 11 -12 14 -27z m146 -140 c0
-27 -34 -186 -37 -175 -5 14 -63 17 -63 3 0 -15 29 -33 45 -27 19 7 19 10 -4
-55 -40 -117 -117 -251 -199 -347 -95 -112 -288 -232 -457 -285 -127 -39 -153
-41 -249 -17 -260 65 -471 209 -601 410 -60 92 -99 173 -128 265 -29 93 -44
180 -27 153 9 -15 26 -18 108 -18 106 0 134 9 116 36 -5 10 -21 24 -33 33 -23
15 -23 14 -17 -7 7 -22 6 -22 -93 -22 l-101 0 0 30 0 30 870 0 c479 0 870 -3
870 -7z"/>
<path d="M1450 2693 c0 -10 -3 -28 -6 -39 -4 -14 0 -23 10 -27 30 -12 42 2 38
43 -3 31 -8 40 -23 40 -11 0 -19 -7 -19 -17z m30 -40 c0 -7 -4 -13 -10 -13 -5
0 -10 12 -10 28 0 21 2 24 10 12 5 -8 10 -21 10 -27z"/>
<path d="M1450 2455 c0 -18 5 -25 20 -25 15 0 20 7 20 25 0 18 -5 25 -20 25
-15 0 -20 -7 -20 -25z"/>
<path d="M1448 2408 c-8 -21 2 -38 23 -38 14 0 19 7 19 25 0 18 -5 25 -19 25
-10 0 -21 -6 -23 -12z"/>
<path d="M1454 2020 c-6 -6 -9 -24 -6 -40 3 -22 10 -30 24 -30 16 0 19 6 16
37 -3 38 -16 51 -34 33z m26 -35 c0 -14 -4 -25 -10 -25 -5 0 -10 11 -10 25 0
14 5 25 10 25 6 0 10 -11 10 -25z"/>
<path d="M1449 1920 c-1 -5 -1 -19 -1 -30 0 -36 2 -40 22 -40 17 0 20 7 20 40
0 33 -3 40 -20 40 -11 0 -20 -4 -21 -10z m31 -30 c0 -11 -4 -20 -10 -20 -5 0
-10 9 -10 20 0 11 5 20 10 20 6 0 10 -9 10 -20z"/>
<path d="M1449 1825 c-3 -2 -3 -20 -1 -40 3 -26 9 -35 23 -35 15 0 19 7 19 40
0 32 -4 40 -18 40 -10 0 -21 -2 -23 -5z m31 -30 c0 -14 -4 -25 -10 -25 -5 0
-10 11 -10 25 0 14 5 25 10 25 6 0 10 -11 10 -25z"/>
<path d="M877 1664 c-4 -4 -7 -16 -7 -26 0 -14 6 -19 23 -16 14 2 22 10 22 23
0 20 -25 32 -38 19z m23 -24 c0 -5 -2 -10 -4 -10 -3 0 -8 5 -11 10 -3 6 -1 10
4 10 6 0 11 -4 11 -10z"/>
<path d="M967 1664 c-4 -4 -7 -16 -7 -26 0 -14 6 -19 23 -16 14 2 22 10 22 23
0 20 -25 32 -38 19z m23 -24 c0 -5 -2 -10 -4 -10 -3 0 -8 5 -11 10 -3 6 -1 10
4 10 6 0 11 -4 11 -10z"/>
<path d="M1057 1664 c-4 -4 -7 -16 -7 -26 0 -13 7 -18 26 -18 21 0 25 4 22 22
-3 23 -27 35 -41 22z m23 -24 c0 -5 -2 -10 -4 -10 -3 0 -8 5 -11 10 -3 6 -1
10 4 10 6 0 11 -4 11 -10z"/>
<path d="M1147 1664 c-4 -4 -7 -16 -7 -26 0 -13 7 -18 26 -18 21 0 25 4 22 22
-3 23 -27 35 -41 22z m23 -24 c0 -5 -2 -10 -4 -10 -3 0 -8 5 -11 10 -3 6 -1
10 4 10 6 0 11 -4 11 -10z"/>
<path d="M1757 1664 c-4 -4 -7 -16 -7 -26 0 -13 7 -18 26 -18 21 0 25 4 22 22
-3 23 -27 35 -41 22z"/>
<path d="M1847 1664 c-4 -4 -7 -16 -7 -26 0 -13 7 -18 26 -18 21 0 25 4 22 22
-3 23 -27 35 -41 22z"/>
<path d="M1937 1664 c-4 -4 -7 -16 -7 -26 0 -13 7 -18 26 -18 21 0 25 4 22 22
-3 23 -27 35 -41 22z"/>
<path d="M2027 1664 c-4 -4 -7 -16 -7 -26 0 -13 7 -18 26 -18 21 0 25 4 22 22
-3 23 -27 35 -41 22z"/>
<path d="M1090 1480 c10 -19 8 -20 -90 -20 -55 0 -100 -4 -100 -8 0 -24 30
-32 126 -32 81 0 104 3 115 16 12 14 9 20 -16 40 -37 29 -49 31 -35 4z"/>
<path d="M1380 1492 c0 -4 5 -13 12 -20 9 -9 -11 -12 -90 -12 -100 0 -114 -4
-90 -28 19 -19 199 -16 224 3 18 15 18 16 -11 40 -31 26 -45 31 -45 17z"/>
<path d="M1680 1493 c0 -5 5 -14 12 -21 9 -9 -11 -12 -90 -12 -100 0 -114 -4
-90 -28 13 -13 183 -17 212 -6 26 10 18 38 -14 57 -16 10 -30 14 -30 10z"/>
<path d="M1980 1493 c0 -5 5 -14 12 -21 9 -9 -12 -12 -95 -12 -105 0 -107 -1
-97 -20 10 -18 21 -20 110 -20 54 0 105 3 114 6 26 10 18 38 -14 57 -16 10
-30 14 -30 10z"/>
<path d="M2260 1492 c0 -4 5 -13 12 -20 9 -9 -10 -12 -85 -12 -96 0 -109 -4
-85 -28 13 -13 173 -17 202 -6 24 9 19 40 -9 58 -27 18 -35 20 -35 8z"/>
<path d="M644 1352 c1 -32 4 -37 26 -37 36 0 37 29 2 54 l-29 20 1 -37z"/>
<path d="M940 1370 c10 -19 8 -20 -90 -20 -98 0 -112 -4 -88 -28 13 -13 192
-17 222 -6 24 9 19 30 -13 53 -37 26 -45 26 -31 1z"/>
<path d="M1230 1382 c0 -4 5 -13 12 -20 9 -9 -11 -12 -90 -12 -56 0 -102 -4
-102 -8 0 -24 30 -32 126 -32 81 0 104 3 115 16 11 14 10 18 -6 31 -32 24 -55
34 -55 25z"/>
<path d="M1530 1382 c0 -4 5 -13 12 -20 9 -9 -12 -12 -95 -12 -105 0 -107 -1
-97 -20 10 -18 21 -20 119 -20 107 0 141 10 123 36 -11 15 -62 45 -62 36z"/>
<path d="M1835 1371 c6 -21 4 -21 -94 -21 -56 0 -101 -4 -101 -9 0 -25 33 -32
136 -29 92 3 109 6 112 19 2 10 -10 27 -29 39 l-31 23 7 -22z"/>
<path d="M2132 1372 c6 -22 4 -22 -93 -22 -97 0 -111 -4 -87 -28 13 -13 192
-17 222 -6 25 10 19 31 -16 55 l-31 23 5 -22z"/>
<path d="M1680 1271 c0 -5 5 -13 10 -16 25 -16 3 -20 -91 -17 -93 3 -100 2
-97 -15 3 -16 16 -18 112 -21 104 -3 144 6 131 29 -10 16 -65 50 -65 40z"/>
<path d="M794 1255 c4 -12 -5 -15 -55 -15 -52 0 -60 -2 -57 -17 5 -26 155 -32
165 -7 4 11 -2 23 -18 35 -29 23 -43 24 -35 4z"/>
<path d="M1088 1258 c7 -7 12 -14 12 -17 0 -4 -45 -5 -100 -3 -55 2 -100 -1
-100 -5 0 -26 29 -33 132 -33 91 0 110 3 115 16 4 11 -2 23 -18 35 -28 21 -61
27 -41 7z"/>
<path d="M1388 1258 c7 -7 12 -14 12 -17 0 -4 -46 -5 -101 -3 -91 3 -101 2
-95 -13 3 -9 6 -19 6 -21 0 -2 51 -4 114 -4 91 0 115 3 119 15 4 8 -5 23 -20
35 -28 22 -55 28 -35 8z"/>
<path d="M1984 1255 c4 -13 -10 -15 -94 -15 -55 0 -100 -4 -100 -8 0 -25 30
-32 132 -32 91 0 110 3 115 16 4 11 -2 23 -18 35 -29 23 -43 24 -35 4z"/>
<path d="M2206 1255 c5 -12 -5 -15 -56 -15 -53 0 -61 -2 -56 -16 3 -9 6 -18 6
-20 0 -2 34 -4 75 -4 61 0 77 3 82 16 4 11 -2 23 -18 35 -29 23 -40 24 -33 4z"/>
<path d="M938 1148 c7 -7 12 -14 12 -17 0 -4 -50 -5 -111 -3 -102 3 -110 2
-107 -15 3 -16 16 -18 133 -18 108 0 130 3 133 15 1 9 -11 23 -27 33 -34 20
-50 22 -33 5z"/>
<path d="M1238 1148 c7 -7 12 -14 12 -17 0 -4 -45 -5 -101 -3 -93 3 -100 2
-97 -15 3 -16 16 -18 117 -21 131 -3 152 5 108 44 -29 25 -62 35 -39 12z"/>
<path d="M1530 1152 c0 -4 4 -12 10 -17 6 -7 -24 -9 -81 -7 -105 4 -127 -1
-109 -23 17 -21 222 -22 239 -1 9 11 6 18 -18 35 -31 23 -41 26 -41 13z"/>
<path d="M1834 1143 c5 -17 -3 -18 -94 -15 -55 2 -100 -1 -100 -5 0 -26 29
-33 132 -33 91 0 110 3 115 16 4 11 -2 23 -18 35 -30 23 -42 24 -35 2z"/>
<path d="M2148 1148 c7 -7 12 -14 12 -17 0 -4 -49 -5 -110 -3 -60 2 -110 0
-110 -5 1 -30 19 -34 141 -31 107 3 124 5 127 20 2 11 -8 23 -27 32 -36 19
-50 21 -33 4z"/>
<path d="M794 1025 c3 -32 20 -49 40 -42 25 10 19 31 -13 50 l-30 17 3 -25z"/>
<path d="M1088 1038 c24 -24 10 -28 -88 -28 -84 0 -98 -2 -94 -15 5 -12 28
-15 119 -15 127 0 146 9 99 47 -30 24 -57 32 -36 11z"/>
<path d="M1380 1042 c0 -4 5 -13 12 -20 9 -9 -11 -12 -91 -12 -78 0 -102 -3
-99 -12 3 -9 38 -14 118 -16 131 -3 152 6 105 44 -31 25 -45 30 -45 16z"/>
<path d="M1680 1042 c0 -4 5 -13 12 -20 9 -9 -11 -12 -91 -12 -78 0 -102 -3
-99 -12 3 -9 39 -14 121 -16 110 -2 117 -1 117 17 0 10 -11 26 -25 35 -27 18
-35 20 -35 8z"/>
<path d="M1980 1043 c0 -5 5 -14 12 -21 9 -9 -12 -12 -95 -12 -90 0 -106 -2
-101 -15 5 -12 29 -15 125 -15 108 0 119 2 119 18 0 10 -13 26 -30 35 -16 10
-30 14 -30 10z"/>
<path d="M2093 998 c2 -7 12 -13 22 -13 10 0 20 6 23 13 2 7 -6 12 -23 12 -17
0 -25 -5 -22 -12z"/>
<path d="M940 920 c10 -18 8 -20 -20 -20 -16 0 -30 -4 -30 -8 0 -32 78 -44
101 -16 12 14 9 20 -16 40 -37 29 -49 31 -35 4z"/>
<path d="M1230 932 c0 -4 5 -13 12 -20 9 -9 -11 -12 -90 -12 -56 0 -102 -4
-102 -8 0 -24 30 -32 126 -32 81 0 104 3 115 16 12 14 9 20 -16 40 -31 25 -45
30 -45 16z"/>
<path d="M1530 933 c0 -5 5 -14 12 -21 9 -9 -12 -12 -97 -12 -108 0 -108 0
-90 -20 17 -19 29 -20 124 -18 97 3 106 5 109 23 2 14 -7 26 -28 38 -16 10
-30 14 -30 10z"/>
<path d="M1834 922 c7 -22 6 -22 -93 -22 -99 0 -113 -4 -89 -28 15 -15 206
-16 228 -2 18 11 6 35 -29 59 -23 15 -23 14 -17 -7z"/>
<path d="M1980 932 c0 -4 5 -13 12 -20 9 -9 5 -12 -20 -12 -34 0 -40 -8 -20
-28 17 -17 64 -15 83 5 16 16 16 18 -1 31 -31 23 -54 33 -54 24z"/>
<path d="M1380 822 c0 -4 5 -13 12 -20 9 -9 -11 -12 -90 -12 -56 0 -102 -2
-102 -4 0 -32 14 -36 120 -36 87 0 110 3 121 16 11 14 10 18 -6 31 -32 24 -55
34 -55 25z"/>
<path d="M1680 823 c0 -5 5 -14 12 -21 9 -9 -11 -12 -91 -12 -92 0 -102 -2
-99 -17 3 -16 18 -18 112 -21 104 -3 144 6 131 29 -10 15 -65 51 -65 42z"/>
<path d="M1094 805 c4 -11 -2 -15 -25 -15 -24 0 -30 -4 -27 -17 5 -26 95 -32
105 -7 4 11 -2 23 -18 35 -29 23 -43 24 -35 4z"/>
<path d="M1844 805 c4 -11 -2 -15 -24 -15 -17 0 -30 -4 -30 -8 0 -16 25 -32
51 -32 60 0 77 26 37 54 -28 20 -42 20 -34 1z"/>
<path d="M1538 698 c7 -7 12 -14 12 -17 0 -4 -45 -5 -101 -3 -93 3 -100 2 -97
-15 3 -16 16 -18 114 -21 87 -2 114 1 123 12 9 11 6 18 -15 35 -29 23 -57 30
-36 9z"/>
<path d="M4400 2980 c0 -27 5 -43 16 -47 8 -3 31 -38 51 -77 48 -97 156 -253
247 -359 45 -53 73 -93 69 -100 -4 -7 -20 -32 -37 -56 -19 -28 -31 -61 -34
-92 -4 -45 -3 -49 22 -61 22 -10 35 -9 69 3 79 27 109 112 67 193 l-19 39 67
85 67 84 7 -48 c4 -27 9 -106 10 -176 2 -70 6 -124 10 -120 17 17 27 145 20
265 l-7 129 112 136 c104 126 163 216 150 228 -4 4 -202 -232 -243 -290 -7
-11 -15 -18 -18 -15 -2 2 -6 38 -8 81 -4 59 -2 75 8 71 9 -3 4 22 -14 76 -17
52 -30 77 -36 71 -12 -12 -12 -42 3 -213 l11 -138 -81 -99 -80 -99 -56 62
c-86 96 -178 217 -238 313 -45 72 -53 89 -40 94 12 4 2 17 -40 53 l-55 48 0
-41z m440 -640 c27 -38 21 -57 -24 -75 -39 -16 -66 -11 -66 13 0 18 49 92 61
92 4 0 17 -14 29 -30z"/>
<path d="M5745 2994 c-111 -54 -460 -212 -462 -210 -7 6 108 116 116 112 14
-9 25 14 13 26 -6 6 -8 17 -5 24 9 25 -6 64 -26 64 -47 0 -65 -71 -20 -85 10
-4 19 -10 19 -14 0 -9 -82 -88 -141 -135 -26 -20 -49 -46 -52 -57 -3 -11 -2
-19 3 -17 68 25 601 286 605 296 8 22 4 22 -50 -4z m-359 -19 c10 -26 0 -37
-20 -22 -11 8 -16 19 -12 25 10 16 26 15 32 -3z"/>
<path d="M2990 2895 c-135 -63 -249 -114 -254 -115 -5 0 14 24 43 54 28 30 51
58 51 63 0 4 -11 -3 -23 -17 -12 -14 -53 -52 -92 -84 -68 -58 -101 -101 -71
-94 42 9 589 276 597 291 5 9 6 17 2 16 -4 0 -118 -52 -253 -114z"/>
<path d="M3650 2974 c-320 -148 -382 -180 -391 -197 -9 -16 -8 -18 9 -13 59
19 456 215 464 229 12 23 5 21 -82 -19z"/>
<path d="M3995 2872 c-243 -112 -301 -142 -303 -159 -3 -20 -2 -20 50 5 29 14
161 76 293 138 131 63 248 123 259 134 11 11 16 20 11 19 -6 0 -145 -62 -310
-137z"/>
<path d="M4737 2996 c-7 -17 19 -56 38 -56 7 0 19 -16 25 -35 9 -28 9 -39 -4
-57 -22 -30 -20 -37 7 -31 20 6 20 4 -6 -21 -22 -20 -27 -33 -23 -50 3 -13 11
-59 18 -102 7 -44 14 -68 16 -55 4 23 -13 125 -25 157 -4 10 8 20 36 31 46 18
54 45 21 65 -12 8 -20 24 -20 41 0 28 -35 92 -62 115 -13 10 -17 10 -21 -2z"/>
<path d="M4830 2989 c-6 -11 -9 -30 -7 -42 4 -19 4 -18 6 5 1 33 17 44 37 27
19 -16 30 -4 14 16 -17 21 -37 19 -50 -6z"/>
<path d="M5954 2973 c-6 -26 -5 -57 3 -98 7 -33 17 -157 23 -275 15 -308 28
-361 98 -405 17 -11 31 -26 32 -32 0 -18 20 -16 20 2 0 8 8 15 18 15 25 1 94
34 159 77 31 20 79 45 107 54 35 12 55 25 64 43 17 34 8 46 -33 46 -19 0 -69
11 -112 24 -146 46 -159 48 -197 32 -42 -18 -61 -67 -53 -139 6 -48 6 -49 -13
-32 -11 10 -24 32 -30 49 -15 47 -29 214 -30 356 0 151 -21 320 -39 320 -4 0
-12 -17 -17 -37z m313 -598 c46 -14 83 -28 83 -30 0 -11 -162 -85 -191 -87
-31 -3 -32 -1 -47 51 -15 53 -15 54 7 73 30 24 49 23 148 -7z"/>
<path d="M6278 2918 c-177 -81 -198 -93 -207 -120 -13 -35 -1 -58 30 -58 26 0
24 14 -3 33 -22 15 -18 18 142 95 91 43 182 87 202 96 32 15 60 47 40 45 -4 0
-96 -41 -204 -91z"/>
<path d="M2796 2987 c-28 -20 -16 -55 26 -79 38 -22 60 -19 40 4 -6 7 -12 29
-14 48 -3 39 -22 49 -52 27z m39 -28 c4 -11 5 -22 3 -25 -8 -7 -48 27 -43 37
11 16 33 10 40 -12z"/>
<path d="M3704 2926 c-3 -14 -4 -33 -2 -43 4 -20 29 -25 36 -5 2 6 -4 12 -13
12 -14 0 -16 6 -11 30 7 36 -1 41 -10 6z"/>
<path d="M4141 2820 c-100 -42 -276 -142 -328 -187 -26 -22 -34 -38 -39 -78
l-6 -50 64 -50 c62 -50 132 -138 125 -159 -2 -6 -20 -20 -39 -31 -36 -19 -37
-19 -58 0 -15 14 -19 26 -15 47 8 36 1 35 -43 -3 -20 -17 -51 -38 -70 -46 -30
-12 -37 -12 -57 1 -29 19 -40 51 -64 196 -21 120 -48 215 -77 272 l-17 33 -10
-28 c-7 -22 -2 -50 27 -137 20 -59 36 -117 36 -128 0 -28 -71 -115 -128 -157
-56 -41 -134 -69 -167 -61 -34 9 -43 50 -19 78 34 38 97 78 122 78 14 0 36
-10 49 -22 19 -18 23 -19 23 -5 0 30 -19 66 -41 78 -51 27 -156 -38 -232 -144
-75 -105 -127 -138 -157 -102 -10 13 -9 15 12 15 36 0 60 33 66 90 5 50 -14
140 -29 140 -17 0 -21 -61 -5 -85 22 -34 20 -54 -9 -67 -37 -17 -71 12 -105
86 -15 35 -36 66 -45 70 -35 13 -74 -35 -116 -139 -33 -82 -62 -125 -86 -125
-7 0 -21 12 -30 27 -14 22 -18 48 -18 130 0 66 -3 98 -10 92 -5 -5 -10 -55
-10 -112 0 -84 4 -109 20 -141 43 -81 87 -65 130 46 63 161 116 192 147 84 6
-22 22 -52 34 -66 12 -14 26 -37 29 -52 11 -43 43 -71 74 -63 30 7 79 52 117
107 15 21 29 38 33 38 3 0 7 -17 8 -38 3 -41 32 -72 67 -72 39 0 146 59 194
107 26 26 57 68 69 93 24 51 25 49 42 -60 13 -82 29 -115 66 -132 35 -16 75
-1 116 42 l37 39 6 -35 c8 -40 36 -58 76 -49 46 10 70 48 70 112 l0 55 90 -81
c49 -44 101 -83 115 -87 55 -14 120 24 181 107 20 27 39 49 42 49 4 0 8 -12 9
-27 1 -32 35 -63 69 -63 13 0 38 13 56 29 33 28 34 29 56 11 26 -21 57 -16 77
13 19 27 20 117 1 142 -12 17 -13 17 -20 -8 -4 -17 -1 -35 9 -50 17 -27 11
-37 -20 -37 -31 0 -49 24 -41 55 9 35 -9 31 -24 -5 -28 -67 -113 -95 -140 -46
-7 14 -10 32 -7 40 14 36 -14 22 -48 -24 -43 -58 -88 -95 -128 -105 -55 -14
-91 3 -203 96 -60 50 -121 98 -136 107 -34 20 -36 32 -5 33 13 0 0 8 -33 20
-30 10 -61 21 -69 24 -21 8 111 102 249 177 83 46 198 84 211 71 6 -6 0 -22
-17 -44 -31 -41 -74 -124 -74 -141 0 -7 10 4 23 24 12 21 35 56 50 77 34 47
59 114 51 136 -10 24 -51 17 -153 -25z"/>
<path d="M5777 2773 c-13 -12 -7 -32 7 -27 8 3 17 1 20 -5 4 -5 -3 -13 -15
-16 -26 -9 -39 -43 -28 -75 5 -14 13 -56 18 -95 l10 -70 -4 77 c-2 42 -8 86
-15 98 -10 19 -8 23 29 38 50 21 59 41 31 64 -23 19 -42 23 -53 11z"/>
<path d="M3091 2667 c-6 -8 -15 -31 -20 -53 -5 -21 -9 -32 -10 -24 -2 26 -58
86 -70 75 -14 -14 10 -61 30 -57 16 2 39 -36 39 -66 0 -35 20 12 20 48 0 46
15 69 32 52 16 -16 28 -15 28 3 0 22 -35 38 -49 22z"/>
<path d="M4410 2673 c-65 -12 -67 -49 -2 -45 l47 3 -25 -23 c-14 -13 -37 -31
-50 -41 -24 -17 -24 -17 15 -2 40 16 45 21 70 67 26 48 18 54 -55 41z"/>
<path d="M5542 2668 c-7 -7 -12 -19 -11 -27 0 -11 2 -12 6 -3 6 14 33 16 33 2
0 -5 5 -10 10 -10 17 0 11 29 -8 39 -13 7 -23 6 -30 -1z"/>
<path d="M6333 2668 c-4 -7 -10 -31 -13 -53 -6 -39 -7 -39 -17 -15 -13 29 -50
70 -63 70 -6 0 -10 -8 -10 -18 0 -21 33 -56 43 -46 4 4 15 -13 26 -37 l18 -44
8 58 c8 61 18 76 40 57 20 -16 28 5 9 24 -19 19 -30 20 -41 4z"/>
<path d="M3371 2665 c0 -6 7 -26 15 -45 l14 -35 -5 35 c-5 30 -26 70 -24 45z"/>
<path d="M5440 2654 c0 -25 19 -54 33 -48 14 5 37 -34 37 -62 0 -8 5 -12 10
-9 6 3 10 17 10 31 0 14 -4 22 -10 19 -5 -3 -10 -1 -10 6 0 16 -48 79 -61 79
-5 0 -9 -7 -9 -16z"/>
<path d="M3330 2655 c-2 -5 -3 -30 -4 -55 -1 -38 -4 -45 -21 -45 -16 0 -21 9
-26 45 l-6 45 -1 -51 c-2 -37 3 -55 14 -65 14 -12 19 -10 39 15 18 23 23 25
28 12 9 -22 34 -20 40 3 3 13 0 18 -8 15 -16 -7 -36 19 -45 59 -4 17 -9 28
-10 22z"/>
<path d="M2696 2561 c-16 -18 -16 -20 8 -47 24 -28 24 -29 45 -10 20 18 22 19
41 1 20 -18 21 -18 45 5 l25 24 -22 23 c-25 27 -41 29 -58 8 -12 -14 -15 -14
-30 0 -22 20 -33 19 -54 -4z"/>
<path d="M5086 2562 c-15 -18 -15 -20 9 -46 24 -26 26 -26 50 -10 22 15 26 15
40 0 15 -14 18 -14 41 0 29 19 29 22 5 52 -23 26 -38 28 -63 6 -16 -16 -18
-16 -24 0 -8 21 -37 20 -58 -2z"/>
<path d="M4143 2505 c2 -31 26 -42 35 -16 3 8 0 11 -7 7 -6 -4 -15 2 -21 16
-9 21 -10 21 -7 -7z"/>
<path d="M5168 2451 c-25 -20 -45 -56 -97 -174 -16 -37 -37 -70 -46 -73 -45
-17 -81 95 -68 210 8 73 -4 53 -17 -28 -19 -122 19 -236 80 -236 30 0 32 3 95
147 52 118 84 122 131 15 43 -100 71 -127 132 -127 37 0 56 7 94 34 l46 33 41
-32 c56 -45 116 -52 157 -17 23 20 56 68 70 105 1 1 21 -9 45 -23 24 -13 52
-25 61 -25 28 0 40 37 36 112 -3 54 -8 73 -23 84 -10 8 -23 14 -28 14 -18 0
-84 -77 -91 -106 -15 -59 -75 -114 -125 -114 -24 0 -91 30 -91 41 0 4 22 20
49 36 28 15 55 39 61 52 10 22 9 28 -14 48 -49 42 -158 49 -259 17 -16 -5 -54
-72 -45 -78 2 -2 18 -8 36 -16 37 -14 82 -47 82 -60 0 -11 -76 -40 -107 -40
-35 0 -83 53 -106 118 -19 52 -51 102 -66 102 -5 0 -19 -9 -33 -19z m433 -68
c4 -4 -9 -18 -30 -29 l-39 -21 -31 24 c-47 37 -40 47 30 40 34 -3 65 -9 70
-14z m284 -13 c10 -11 15 -23 12 -26 -10 -11 -67 17 -67 32 0 21 34 17 55 -6z"/>
<path d="M3686 2442 c-15 -18 -15 -20 9 -47 l26 -27 25 23 24 23 -22 23 c-26
28 -40 29 -62 5z"/>
<path d="M4611 2224 c-16 -21 -18 -30 -10 -40 8 -10 8 -14 0 -14 -6 0 -11 -6
-11 -14 0 -11 11 -8 45 11 49 27 64 43 41 43 -8 0 -18 -5 -21 -10 -4 -7 -13
-7 -26 0 -22 12 -17 32 6 23 16 -6 21 12 6 22 -5 3 -19 -7 -30 -21z"/>
<path d="M2810 2215 c-10 -12 -9 -20 4 -40 18 -28 28 -30 56 -15 14 7 25 7 39
-2 15 -9 24 -8 46 6 l27 18 -23 24 c-25 26 -48 31 -67 12 -9 -9 -15 -9 -24 0
-16 16 -43 15 -58 -3z"/>
<path d="M6355 2214 c-15 -15 -14 -18 6 -40 27 -29 41 -30 62 -6 15 16 15 20
1 40 -18 26 -46 28 -69 6z"/>
<path d="M2744 1748 c-38 -95 -79 -184 -92 -197 -13 -13 -21 -25 -19 -28 3 -2
29 -3 58 -1 52 3 53 4 27 15 -32 14 -31 11 -16 54 15 44 23 49 85 49 55 0 71
-12 88 -67 5 -19 1 -25 -19 -33 -14 -5 -26 -12 -26 -15 0 -3 42 -5 93 -5 74 1
89 3 76 13 -21 16 -35 45 -109 222 -34 83 -65 154 -70 158 -4 4 -38 -70 -76
-165z m95 -85 c1 -9 -16 -13 -54 -13 -30 0 -55 3 -55 8 0 8 39 112 48 126 6
10 60 -97 61 -121z"/>
<path d="M4407 1908 c-102 -256 -142 -346 -158 -360 -10 -9 -19 -19 -19 -22 0
-3 26 -6 58 -6 57 1 57 1 29 16 -29 16 -29 19 -6 82 8 19 15 22 69 22 51 0 62
-3 74 -22 29 -47 29 -67 2 -78 -14 -5 -26 -12 -26 -15 0 -3 42 -5 93 -5 74 1
89 3 76 13 -21 16 -43 60 -119 240 -34 81 -63 147 -65 147 -2 0 -5 -6 -8 -12z
m7 -183 c14 -36 26 -67 26 -70 0 -3 -25 -5 -55 -5 -30 0 -55 3 -55 8 0 15 45
132 51 132 4 0 19 -29 33 -65z"/>
<path d="M3050 1899 c0 -4 9 -9 20 -12 19 -5 20 -14 20 -171 l0 -166 -25 -10
c-14 -5 -25 -12 -25 -15 0 -3 74 -5 164 -5 l163 0 12 61 c14 70 9 84 -13 41
-8 -16 -30 -42 -47 -56 -27 -23 -40 -26 -83 -24 l-51 3 0 170 c0 169 0 170 23
173 12 2 22 6 22 10 0 4 -40 7 -90 7 -49 0 -90 -3 -90 -6z"/>
<path d="M3430 1903 c0 -4 10 -13 23 -18 21 -10 22 -16 25 -155 3 -167 0 -185
-30 -196 -15 -5 36 -9 136 -11 88 -2 163 0 167 4 4 5 12 31 17 60 l9 52 -46
-49 c-46 -48 -49 -50 -103 -50 -66 0 -68 3 -68 101 0 65 1 69 23 69 33 0 59
-22 73 -61 11 -31 12 -24 12 66 0 85 -1 96 -11 74 -20 -43 -38 -59 -69 -59
l-29 0 3 78 3 77 44 3 c64 5 100 -14 121 -62 l19 -41 0 58 1 57 -144 0 c-79 0
-151 3 -160 6 -9 3 -16 2 -16 -3z"/>
<path d="M3810 1898 c0 -4 8 -9 18 -12 9 -4 44 -48 78 -100 l61 -94 -59 -76
c-38 -48 -67 -76 -79 -76 -10 0 -19 -4 -19 -10 0 -6 30 -10 71 -10 44 0 68 4
64 10 -3 6 -12 10 -20 10 -29 0 -26 24 10 76 21 30 40 54 44 54 8 -1 71 -105
71 -118 0 -5 -10 -13 -22 -18 -16 -5 5 -9 66 -11 94 -4 109 0 83 20 -17 13
-137 193 -137 205 0 20 112 142 130 142 11 0 20 3 20 8 0 4 -31 7 -70 7 -38 0
-70 -3 -70 -7 0 -5 9 -8 20 -8 29 0 25 -25 -12 -76 -17 -24 -33 -44 -34 -44
-2 0 -17 20 -34 44 -35 52 -38 76 -10 76 11 0 20 3 20 8 0 4 -43 7 -95 7 -52
0 -95 -3 -95 -7z"/>
<path d="M4644 1901 c-2 -2 8 -12 21 -23 25 -19 25 -22 25 -174 l0 -154 -27
-12 -28 -12 32 -4 c18 -2 50 -2 70 0 l38 4 -28 12 c-15 6 -30 18 -33 25 -2 7
-3 69 -2 136 l3 124 130 -159 130 -159 5 185 c5 180 6 185 28 195 35 15 26 20
-38 20 -33 0 -60 -3 -60 -7 0 -5 6 -8 14 -8 29 0 37 -27 34 -126 l-3 -98 -96
118 -95 118 -58 2 c-32 0 -59 -1 -62 -3z"/>
<path d="M5060 1899 c0 -4 9 -9 20 -12 19 -5 20 -14 20 -172 0 -158 -1 -167
-20 -172 -81 -21 120 -33 209 -12 99 22 145 90 139 200 -7 127 -64 166 -251
171 -64 2 -117 0 -117 -3z m229 -35 c35 -29 51 -77 51 -154 0 -113 -41 -175
-112 -168 l-33 3 -3 160 c-1 87 0 165 2 172 9 22 62 15 95 -13z"/>
<path d="M5470 1898 c0 -4 10 -8 23 -10 22 -3 22 -5 25 -171 l2 -167 -27 -12
c-27 -12 -26 -13 25 -16 29 -2 74 -1 100 1 38 3 43 5 24 11 -27 10 -34 34 -30
109 l3 58 68 -91 67 -90 55 0 c30 0 55 2 55 4 0 2 -12 17 -27 33 -16 17 -47
57 -70 90 l-43 61 30 12 c78 32 80 138 3 168 -31 12 -283 21 -283 10z m224
-24 c22 -21 29 -57 22 -99 -7 -37 -22 -49 -73 -58 l-33 -6 0 83 c0 45 3 86 7
89 12 13 62 7 77 -9z"/>
<path d="M5890 1898 c0 -4 10 -8 23 -10 22 -3 22 -5 25 -171 l2 -167 -27 -12
c-27 -12 -26 -13 25 -16 29 -2 74 -2 100 0 46 3 47 4 19 16 l-27 12 2 167 c3
166 3 168 26 171 12 2 22 6 22 10 0 4 -43 7 -95 7 -52 0 -95 -3 -95 -7z"/>
<path d="M6250 1798 c-66 -168 -108 -258 -119 -258 -6 0 -11 -4 -11 -10 0 -5
23 -10 50 -10 28 0 50 5 50 10 0 6 -7 10 -15 10 -24 0 -28 24 -11 64 15 36 15
36 75 36 57 0 61 -2 76 -30 19 -37 19 -70 1 -70 -8 0 -18 -4 -21 -10 -4 -6 27
-10 87 -10 90 0 92 1 71 18 -13 10 -52 88 -96 192 -41 96 -78 175 -83 177 -5
2 -29 -48 -54 -109z m51 -73 c15 -35 24 -67 21 -70 -7 -7 -97 -7 -104 0 -6 6
43 135 51 135 3 0 18 -29 32 -65z"/>
<path d="M5203 1419 c-26 -10 -45 -42 -37 -63 3 -9 28 -31 55 -51 52 -37 63
-67 30 -85 -30 -15 -41 -13 -70 19 l-27 29 4 -28 c3 -24 10 -29 43 -34 43 -7
73 4 88 33 17 31 1 59 -51 91 -38 24 -49 35 -46 53 2 17 11 23 35 25 26 3 34
-2 47 -25 8 -15 15 -21 15 -13 0 16 -17 60 -18 48 -1 -4 -11 -4 -23 1 -13 5
-33 5 -45 0z"/>
<path d="M2648 1413 c8 -3 12 -31 12 -87 0 -98 15 -121 81 -121 60 0 73 21 78
118 2 46 8 85 15 89 6 4 -5 8 -24 8 -29 -1 -32 -2 -17 -11 23 -14 24 -134 1
-167 -17 -25 -74 -31 -92 -9 -17 20 -18 167 -1 178 9 6 1 8 -26 8 -22 0 -34
-3 -27 -6z"/>
<path d="M3098 1408 c7 -7 12 -44 12 -95 0 -68 -3 -84 -17 -92 -15 -9 -12 -10
17 -11 22 0 30 3 22 9 -9 5 -12 30 -10 84 l3 77 70 -87 70 -87 3 99 c2 64 7
102 15 107 7 4 -3 8 -23 8 -29 -1 -32 -2 -17 -11 13 -8 17 -24 17 -74 0 -60
-11 -84 -23 -52 -2 7 -28 40 -57 75 -33 40 -59 62 -73 62 -16 0 -18 -3 -9 -12z"/>
<path d="M3548 1413 c8 -3 12 -33 12 -98 0 -65 -4 -95 -12 -98 -7 -3 5 -5 27
-5 22 0 34 2 28 5 -9 3 -13 33 -13 98 0 65 4 95 13 98 6 3 -6 5 -28 5 -22 0
-34 -2 -27 -5z"/>
<path d="M3872 1403 c8 -10 32 -58 53 -106 21 -48 41 -84 45 -80 4 4 22 46 40
93 18 47 38 91 43 98 7 8 4 12 -9 12 -14 0 -19 -8 -20 -28 -1 -15 -12 -52 -26
-82 l-24 -55 -28 60 c-15 33 -29 70 -29 82 -2 18 -8 23 -31 23 -27 0 -28 -1
-14 -17z"/>
<path d="M4318 1408 c17 -17 16 -184 0 -192 -7 -3 25 -4 71 -3 79 2 84 3 93
27 l9 25 -21 -22 c-15 -17 -32 -23 -65 -23 l-44 0 0 95 0 95 44 0 c31 0 47 -5
54 -17 9 -16 10 -16 11 5 0 21 -4 22 -82 22 -64 0 -79 -3 -70 -12z"/>
<path d="M4728 1413 c8 -3 12 -33 12 -98 0 -65 -4 -95 -12 -98 -7 -3 5 -5 27
-5 22 0 34 2 28 5 -15 5 -18 93 -4 93 5 0 27 -22 48 -50 24 -31 46 -49 59 -50
19 0 17 5 -17 42 -45 50 -47 60 -16 73 13 6 23 21 25 37 5 39 -29 58 -103 57
-33 0 -54 -3 -47 -6z m110 -15 c7 -7 12 -21 12 -33 0 -29 -19 -45 -52 -45 -27
0 -28 2 -28 45 0 43 1 45 28 45 15 0 33 -5 40 -12z"/>
<path d="M5563 1409 c14 -8 17 -25 17 -94 0 -69 -3 -86 -17 -94 -14 -8 -10
-10 22 -10 22 0 34 3 28 6 -17 6 -18 174 -1 191 9 9 3 12 -27 12 -32 -1 -37
-3 -22 -11z"/>
<path d="M5870 1411 c0 -5 -3 -18 -6 -28 -5 -13 -2 -12 10 5 10 12 28 22 42
22 24 0 24 -1 24 -94 0 -66 -4 -96 -12 -99 -7 -3 5 -5 27 -5 22 0 34 2 28 5
-9 3 -13 33 -13 99 l0 94 28 0 c20 0 32 -7 40 -22 10 -23 11 -23 11 5 l1 27
-90 0 c-49 0 -90 -4 -90 -9z"/>
<path d="M6335 1361 c50 -65 61 -121 28 -140 -14 -8 -8 -10 27 -10 25 0 39 3
33 6 -8 3 -13 24 -13 52 0 38 7 57 32 92 17 24 36 47 42 51 6 4 -2 8 -17 8
-16 0 -26 -4 -22 -10 6 -9 -35 -90 -45 -90 -3 0 -17 19 -32 42 -19 31 -24 45
-15 50 7 4 -4 8 -25 8 l-38 0 45 -59z"/>
<path d="M4428 1329 c-14 -15 -15 -19 -4 -19 8 0 17 -6 19 -12 3 -7 6 2 6 20
1 37 2 37 -21 11z"/>
</g>
</svg>
